<svg enable-background="new 0 0 62.7 62.7" viewBox="0 0 62.7 62.7" xmlns="http://www.w3.org/2000/svg"><path d="m62.7 31.3c0 17.3-14 31.3-31.3 31.3-17.4.1-31.4-14-31.4-31.3s14-31.3 31.3-31.3c17.3 0 31.3 14 31.4 31.3" fill="#404852"/><g fill="#fff"><path d="m32 32.7c-1.3-3.7-2.7-7.4-4.2-11.7-1.3 2.7-2.5 4.9-3.5 7.1-.6 1.3-1.3 1.9-2.8 1.8-2.4-.1-4.7-.2-7.1 0-1.8.1-2.4-.7-2.8-2.3-1.1-4.8 1-9.3 5.8-11.7 4.6-2.4 9.5-1.6 12.7 2 .3.4.6.8 1.1 1.5.5-.6 1-1.2 1.5-1.7 3.3-3.5 8.4-4.1 13-1.5 4.5 2.6 6.5 7.1 5.2 11.8-.4 1.4-1 2-2.5 2-3.4-.1-6.8-.1-10.3 0-2.4 0-5.2-.8-5.6 3.5-.1-.3-.3-.6-.5-.8z"/><path d="m31.6 41c1.3-2.4 2.4-4.5 3.6-6.5.4-.6 1.2-1.3 1.9-1.4 3.7-.1 7.3-.1 11.7-.1-1.7 2-2.9 3.8-4.4 5.1-3.8 3.3-7.8 6.5-11.8 9.6-.5.4-1.8.5-2.3.2-5.7-3.8-11.1-7.9-15.3-13.4-.2-.3-.4-.7-.8-1.4 2.9 0 5.5-.1 8.1 0 2 .1 3.6-.2 4.2-2.4.1-.4.5-.7.8-1.2 1.5 3.8 2.8 7.4 4.3 11.5z"/></g></svg>